<svg fill="none" xmlns="http://www.w3.org/2000/svg" viewBox="0 0 1386 1373">
  <path fill="#fff" d="M0 0h1386v1373H0z"/>
  <path d="m319 502 101-2" stroke="#000" stroke-width="20" stroke-linecap="round"/>
  <path stroke="#000" stroke-width="5" d="M975 635h103"/>
  <path d="M917 876c0 123-108 225-243 225-136 0-244-102-244-225 0-124 108-226 244-226 135 0 243 102 243 226Z" stroke="#000" stroke-width="20"/>
  <ellipse cx="673.5" cy="875.5" rx="181.5" ry="179.5" fill="#000"/>
  <path d="M538 852c5-24 19-38 32-58 3-4 15-17 20-18 9-2 13-12 25-12" stroke="#fff" stroke-width="10" stroke-linecap="round"/>
  <path fill-rule="evenodd" clip-rule="evenodd" d="m714 138 7-1h6l4-4 1-6-3-4-4-3-1-3-7-5-8-2-5 2-4 5 1 5a17 17 0 0 0 3 5c0 2 2 4 3 5h1c1 2 3 5 6 6Zm-4-20Zm-48 35 8-1 10 1c3 2 6 5 7 10l1 6-4 5-5 1h-5a49 49 0 0 1-9-3l-3-1-2-1a5 5 0 0 1-2-7v-4c0-3 2-5 4-6Zm7 9h-1a5 5 0 0 0 1 1v-1Zm-2-1Zm48 35c5 2 9 7 11 14l-1 6-4 3-8 1c-5 1-12 0-18-1l-8-3c-2-1-5-3-5-8 0-2 1-4 3-5l4-3 9-3 3-2c4-1 9-1 14 1Zm-17 14-2-2-1 1a33 33 0 0 0 3 1Zm14 1h1l2-1-1-2-2 3Zm5-1Zm-26-3Zm1 3ZM459 255c0-6 4-10 10-10h366a10 10 0 1 1 0 20H469c-6 0-10-4-10-10Zm359 293-6-283h-20l2 80-82-3v10l82 3 1 39-134-6v10l134 6 1 58h-84v10h84l2 76h20Zm0 0v-14h266c44 0 79 35 79 79v531c0 44-35 79-79 79H281c-44 0-79-35-79-79V613c0-44 35-79 79-79h225l-3-269h20l3 283h-11v6H281c-33 0-59 26-59 59v531c0 33 26 59 59 59h803c33 0 59-26 59-59V613c0-33-26-59-59-59H818v-6Z" fill="#000"/>
  <path fill-rule="evenodd" clip-rule="evenodd" d="M500 705H302c-34 0-61 27-61 61v361c0 34 27 61 61 61h759c34 0 61-27 61-61V766c0-34-27-61-61-61H857v10h204c28 0 51 23 51 51v361c0 28-23 51-51 51H302c-28 0-51-23-51-51V766c0-28 23-51 51-51h198v-10Z" fill="#000"/>
  <path d="m377 1142-1 3h4l-2-3v-1h-1v1Zm-1 11-1 1h-5v-7l1-2v-2l2-5 1-1h8v1l2 5a17 17 0 0 1 1 4v7h-5v-4h-4v3Zm22 1h-10v-17h9l3 1 1 2v3l-1 1 2 1 1 3v2l-1 3-4 1Zm-4-13v2h2l1-1-1-1h-2Zm0 6v3h3l1-1v-1l-1-1h-3Zm16 7h-4v-17h5v6h1l2-5 1-1h5v1l-3 5 3 1v10h-5v-6h-4v6h-1ZM498 1154h-4v-17h8l4 1 2 3v3l-2 4-4 1h-3v5h-1Zm1-13v4h2l1-1v-2l-1-1h-2Zm16 13h-5v-17h5v6h4v-5l1-1h5v17h-5l-1-1v-5h-4v6Zm28-5v2l-2 2-2 1h-7l-3-1-1-2v-12l1-1 3-1 3-1 4 1 2 1 2 1v10Zm-10 0h1l1 1 2-1v-8h-3l-1 1v7Zm21 5h-5v-13h-4v-4h14v4h-4v13h-1Zm22-5v2l-1 2-3 1h-7l-2-1-2-2v-12l2-1 2-1 4-1 3 1 3 1 1 1v10Zm-9 0 2 1 1-1h1v-7l-1-1h-3v8Zm20 5h-8v-4l1-1h7l-1-1-4-1-2-1-1-3v-2l1-3 4-1h7v4h-6l-1 1v1h4l3 1 1 3v3l-1 3-4 1Z" fill="#D90D0D"/>
</svg>
