<svg width="1386" height="1373" viewBox="0 0 1386 1373" fill="none" xmlns="http://www.w3.org/2000/svg">
<rect width="1386" height="1373" fill="white"/>
<path d="M318.994 502.014L419.982 499.5" stroke="black" stroke-width="20" stroke-linecap="round"/>
<line x1="975" y1="634.5" x2="1078" y2="634.5" stroke="black" stroke-width="5"/>
<path d="M917 875.5C917 999.359 808.688 1101 673.5 1101C538.312 1101 430 999.359 430 875.5C430 751.641 538.312 650 673.5 650C808.688 650 917 751.641 917 875.5Z" stroke="black" stroke-width="20"/>
<ellipse cx="673.5" cy="875.5" rx="181.5" ry="179.5" fill="black"/>
<path d="M538 852.419C542.771 827.968 557.145 814.432 570.42 794.128C572.983 790.208 585.33 776.755 589.741 775.953C599.202 774.233 603.136 764 614.63 764" stroke="white" stroke-width="10" stroke-linecap="round"/>
<rect x="246" y="710" width="871" height="473" rx="56" stroke="white" stroke-width="10"/>
<path fill-rule="evenodd" clip-rule="evenodd" d="M713.916 137.629C716.249 138.402 718.695 138.169 720.874 136.997C721.289 137.084 721.706 137.16 722.121 137.219C723.371 137.396 724.973 137.484 726.576 137.055C728.342 136.583 730.249 135.42 731.286 133.18C732.215 131.174 732.071 129.081 731.704 127.43C731.295 125.589 730.492 123.93 729.236 122.574C728.087 121.334 726.749 120.551 725.457 120.056C724.956 119.128 724.372 118.271 723.748 117.496C721.973 115.286 719.66 113.457 717.212 112.195C714.8 110.952 711.919 110.09 709.009 110.261C707.241 110.365 705.34 110.742 703.695 111.775C701.855 112.93 700.655 114.716 700.31 116.817C700.003 118.685 700.436 120.39 700.916 121.631C701.414 122.921 702.126 124.132 702.86 125.191C703.305 125.834 703.791 126.468 704.302 127.083C704.319 129.067 705.524 130.934 707.485 131.699L707.484 131.699C707.49 131.701 707.517 131.712 707.571 131.736C707.638 131.765 707.725 131.805 707.838 131.857L707.879 131.876C707.894 131.914 707.91 131.952 707.926 131.989C708.95 134.383 711.024 136.671 713.916 137.629ZM710.186 117.849C710.186 117.849 710.189 117.858 710.191 117.873C710.187 117.857 710.186 117.849 710.186 117.849ZM662.054 153.099C664.183 151.951 666.752 151.514 669.514 151.514C672.355 151.514 676.119 151.725 679.511 153.173C683.215 154.754 686.381 157.789 687.494 162.798C687.95 164.847 688.091 166.991 687.52 169.021C686.902 171.219 685.536 172.952 683.656 174.036C681.928 175.032 680.064 175.315 678.523 175.35C676.948 175.386 675.352 175.17 673.886 174.865C671.57 174.384 669.048 173.546 666.801 172.696C666.504 172.613 666.218 172.519 665.945 172.417C665.521 172.259 665.109 172.077 664.712 171.874C663.425 171.35 662.315 170.867 661.506 170.516C660.968 170.282 660.563 170.106 660.328 170.014C657.756 169.01 656.484 166.111 657.488 163.539C657.537 163.414 657.59 163.293 657.647 163.174C657.319 161.845 657.216 160.34 657.581 158.781C658.159 156.308 659.771 154.329 662.054 153.099ZM668.826 161.53C668.409 161.55 668.067 161.587 667.79 161.631C667.939 161.844 668.124 162.065 668.341 162.279C668.448 162.385 668.552 162.478 668.653 162.561C668.717 162.281 668.778 161.94 668.826 161.53ZM667.348 160.745C667.349 160.745 667.349 160.749 667.35 160.757L667.349 160.749C667.348 160.746 667.348 160.745 667.348 160.745ZM714.78 195.982C719.666 198.201 723.702 202.711 725.736 209.829C726.295 211.785 726.042 213.844 724.912 215.602C723.91 217.161 722.471 218.095 721.305 218.662C718.998 219.784 716.061 220.279 713.313 220.494C707.647 220.937 700.516 220.341 694.791 219.006C691.96 218.345 689.122 217.426 686.907 216.15C685.14 215.132 681.518 212.542 682.091 208.044C682.356 205.965 683.487 204.382 684.614 203.282C685.747 202.177 687.174 201.258 688.725 200.463C691.09 199.251 694.23 198.082 698.207 196.94C699.235 196.246 700.366 195.72 701.474 195.338C705.129 194.077 710.082 193.849 714.78 195.982ZM698.158 209.507C697.5 209.125 696.86 208.653 696.296 208.067C695.752 208.269 695.254 208.467 694.8 208.66C695.471 208.868 696.226 209.072 697.062 209.267C697.42 209.351 697.786 209.431 698.158 209.507ZM712.413 210.534L712.533 210.524C713.642 210.438 714.546 210.308 715.255 210.166C714.894 209.356 714.501 208.662 714.09 208.068C713.792 209.052 713.198 209.909 712.413 210.534ZM717.038 209.611C717.038 209.612 717.03 209.617 717.011 209.628C717.028 209.616 717.037 209.611 717.038 209.611ZM691.347 207.106C691.354 207.105 691.401 207.14 691.469 207.212C691.374 207.142 691.34 207.106 691.347 207.106ZM691.572 210.466L691.568 210.47L691.564 210.474C691.564 210.474 691.567 210.471 691.572 210.466Z" fill="black"/>
<path fill-rule="evenodd" clip-rule="evenodd" d="M459 255C459 249.477 463.477 245 469 245H835C840.523 245 845 249.477 845 255C845 260.523 840.523 265 835 265L812 265L469 265C463.477 265 459 260.523 459 255ZM818 548L812 265L792.005 265.424L793.685 344.664L712 342L711.674 351.995L793.897 354.676L794.722 393.602L661.419 388.009L661 398L794.934 403.62L796.172 462H712V472H796.384L798.005 548.424L818 548ZM818 548V534H1084C1127.63 534 1163 569.37 1163 613V1144C1163 1187.63 1127.63 1223 1084 1223H281C237.369 1223 202 1187.63 202 1144V613C202 569.37 237.37 534 281 534H505.85L503.001 265.212L523 265L526 548L515 548.117V554H281C248.415 554 222 580.415 222 613V1144C222 1176.58 248.415 1203 281 1203H1084C1116.58 1203 1143 1176.58 1143 1144V613C1143 580.415 1116.58 554 1084 554H818V548Z" fill="black"/>
</svg>
