<svg width="1386" height="1373" viewBox="0 0 1386 1373" fill="none" xmlns="http://www.w3.org/2000/svg">
<rect width="1386" height="1373" fill="white"/>
<path d="M318.994 502.014L419.982 499.5" stroke="black" stroke-width="20" stroke-linecap="round"/>
<line x1="975" y1="634.5" x2="1078" y2="634.5" stroke="black" stroke-width="5"/>
<path d="M917 875.5C917 999.359 808.688 1101 673.5 1101C538.312 1101 430 999.359 430 875.5C430 751.641 538.312 650 673.5 650C808.688 650 917 751.641 917 875.5Z" stroke="black" stroke-width="20"/>
<ellipse cx="673.5" cy="875.5" rx="181.5" ry="179.5" fill="black"/>
<path d="M538 852.419C542.771 827.968 557.145 814.432 570.42 794.128C572.983 790.208 585.33 776.755 589.741 775.953C599.202 774.233 603.136 764 614.63 764" stroke="white" stroke-width="10" stroke-linecap="round"/>
<path fill-rule="evenodd" clip-rule="evenodd" d="M713.916 137.629C716.249 138.402 718.695 138.169 720.874 136.997C721.289 137.084 721.706 137.16 722.121 137.219C723.371 137.396 724.973 137.484 726.576 137.055C728.342 136.583 730.249 135.42 731.286 133.18C732.215 131.174 732.071 129.081 731.704 127.43C731.295 125.589 730.492 123.93 729.236 122.574C728.087 121.334 726.749 120.551 725.457 120.056C724.956 119.128 724.372 118.271 723.748 117.496C721.973 115.286 719.66 113.457 717.212 112.195C714.8 110.952 711.919 110.09 709.009 110.261C707.241 110.365 705.34 110.742 703.695 111.775C701.855 112.93 700.655 114.716 700.31 116.817C700.003 118.685 700.436 120.39 700.916 121.631C701.414 122.921 702.126 124.132 702.86 125.191C703.305 125.834 703.791 126.468 704.302 127.083C704.319 129.067 705.524 130.934 707.485 131.699L707.484 131.699C707.49 131.701 707.517 131.712 707.571 131.736C707.638 131.765 707.725 131.805 707.838 131.857L707.879 131.876C707.894 131.914 707.91 131.952 707.926 131.989C708.95 134.383 711.024 136.671 713.916 137.629ZM710.186 117.849C710.186 117.849 710.189 117.858 710.191 117.873C710.187 117.857 710.186 117.849 710.186 117.849ZM662.054 153.099C664.183 151.951 666.752 151.514 669.514 151.514C672.355 151.514 676.119 151.725 679.511 153.173C683.215 154.754 686.381 157.789 687.494 162.798C687.95 164.847 688.091 166.991 687.52 169.021C686.902 171.219 685.536 172.952 683.656 174.036C681.928 175.032 680.064 175.315 678.523 175.35C676.948 175.386 675.352 175.17 673.886 174.865C671.57 174.384 669.048 173.546 666.801 172.696C666.504 172.613 666.218 172.519 665.945 172.417C665.521 172.259 665.109 172.077 664.712 171.874C663.425 171.35 662.315 170.867 661.506 170.516C660.968 170.282 660.563 170.106 660.328 170.014C657.756 169.01 656.484 166.111 657.488 163.539C657.537 163.414 657.59 163.293 657.647 163.174C657.319 161.845 657.216 160.34 657.581 158.781C658.159 156.308 659.771 154.329 662.054 153.099ZM668.826 161.53C668.409 161.55 668.067 161.587 667.79 161.631C667.939 161.844 668.124 162.065 668.341 162.279C668.448 162.385 668.552 162.478 668.653 162.561C668.717 162.281 668.778 161.94 668.826 161.53ZM667.348 160.745C667.349 160.745 667.349 160.749 667.35 160.757L667.349 160.749C667.348 160.746 667.348 160.745 667.348 160.745ZM714.78 195.982C719.666 198.201 723.702 202.711 725.736 209.829C726.295 211.785 726.042 213.844 724.912 215.602C723.91 217.161 722.471 218.095 721.305 218.662C718.998 219.784 716.061 220.279 713.313 220.494C707.647 220.937 700.516 220.341 694.791 219.006C691.96 218.345 689.122 217.426 686.907 216.15C685.14 215.132 681.518 212.542 682.091 208.044C682.356 205.965 683.487 204.382 684.614 203.282C685.747 202.177 687.174 201.258 688.725 200.463C691.09 199.251 694.23 198.082 698.207 196.94C699.235 196.246 700.366 195.72 701.474 195.338C705.129 194.077 710.082 193.849 714.78 195.982ZM698.158 209.507C697.5 209.125 696.86 208.653 696.296 208.067C695.752 208.269 695.254 208.467 694.8 208.66C695.471 208.868 696.226 209.072 697.062 209.267C697.42 209.351 697.786 209.431 698.158 209.507ZM712.413 210.534L712.533 210.524C713.642 210.438 714.546 210.308 715.255 210.166C714.894 209.356 714.501 208.662 714.09 208.068C713.792 209.052 713.198 209.909 712.413 210.534ZM717.038 209.611C717.038 209.612 717.03 209.617 717.011 209.628C717.028 209.616 717.037 209.611 717.038 209.611ZM691.347 207.106C691.354 207.105 691.401 207.14 691.469 207.212C691.374 207.142 691.34 207.106 691.347 207.106ZM691.572 210.466L691.568 210.47L691.564 210.474C691.564 210.474 691.567 210.471 691.572 210.466Z" fill="black"/>
<path fill-rule="evenodd" clip-rule="evenodd" d="M459 255C459 249.477 463.477 245 469 245H835C840.523 245 845 249.477 845 255C845 260.523 840.523 265 835 265L812 265L469 265C463.477 265 459 260.523 459 255ZM818 548L812 265L792.005 265.424L793.685 344.664L712 342L711.674 351.995L793.897 354.676L794.722 393.602L661.419 388.009L661 398L794.934 403.62L796.172 462H712V472H796.384L798.005 548.424L818 548ZM818 548V534H1084C1127.63 534 1163 569.37 1163 613V1144C1163 1187.63 1127.63 1223 1084 1223H281C237.369 1223 202 1187.63 202 1144V613C202 569.37 237.37 534 281 534H505.85L503.001 265.212L523 265L526 548L515 548.117V554H281C248.415 554 222 580.415 222 613V1144C222 1176.58 248.415 1203 281 1203H1084C1116.58 1203 1143 1176.58 1143 1144V613C1143 580.415 1116.58 554 1084 554H818V548Z" fill="black"/>
<path fill-rule="evenodd" clip-rule="evenodd" d="M500 705H302C268.311 705 241 732.311 241 766V1127C241 1160.69 268.311 1188 302 1188H1061C1094.69 1188 1122 1160.69 1122 1127V766C1122 732.311 1094.69 705 1061 705H857V715H1061C1089.17 715 1112 737.833 1112 766V1127C1112 1155.17 1089.17 1178 1061 1178H302C273.833 1178 251 1155.17 251 1127V766C251 737.833 273.833 715 302 715H500V705Z" fill="black"/>
<path d="M376.92 1141.76L375.792 1145.41H379.56L378.432 1141.76C378.368 1141.62 378.296 1141.51 378.216 1141.45C378.152 1141.38 378.072 1141.35 377.976 1141.35H377.376C377.28 1141.35 377.192 1141.38 377.112 1141.45C377.048 1141.51 376.984 1141.62 376.92 1141.76ZM375.552 1153.14C375.552 1153.44 375.48 1153.66 375.336 1153.81C375.208 1153.94 374.992 1154 374.688 1154H371.16C370.856 1154 370.632 1153.94 370.488 1153.81C370.36 1153.66 370.296 1153.44 370.296 1153.14V1146.8C370.296 1146.32 370.368 1145.77 370.512 1145.14C370.672 1144.52 370.912 1143.79 371.232 1142.96L373.32 1137.51C373.416 1137.24 373.56 1137.04 373.752 1136.91C373.96 1136.78 374.224 1136.72 374.544 1136.72H381C381.304 1136.72 381.552 1136.78 381.744 1136.91C381.952 1137.04 382.104 1137.24 382.2 1137.51L384.288 1142.96C384.608 1143.79 384.84 1144.52 384.984 1145.14C385.144 1145.77 385.224 1146.32 385.224 1146.8V1153.14C385.224 1153.44 385.152 1153.66 385.008 1153.81C384.88 1153.94 384.664 1154 384.36 1154H380.736C380.416 1154 380.176 1153.94 380.016 1153.81C379.872 1153.66 379.8 1153.44 379.8 1153.14V1149.78H375.552V1153.14ZM398.267 1154H389.051C388.747 1154 388.523 1153.94 388.379 1153.81C388.251 1153.66 388.187 1153.44 388.187 1153.14V1137.58C388.187 1137.28 388.251 1137.06 388.379 1136.94C388.523 1136.79 388.747 1136.72 389.051 1136.72H396.707C398.275 1136.72 399.435 1137.02 400.187 1137.63C400.939 1138.22 401.315 1139.14 401.315 1140.39V1141.54C401.315 1142.22 401.195 1142.77 400.955 1143.2C400.731 1143.62 400.379 1143.93 399.899 1144.14C400.923 1144.23 401.683 1144.58 402.179 1145.19C402.675 1145.8 402.923 1146.69 402.923 1147.86V1150.06C402.923 1151.41 402.539 1152.4 401.771 1153.04C401.019 1153.68 399.851 1154 398.267 1154ZM393.587 1140.8V1143.39H395.627C395.931 1143.39 396.155 1143.31 396.299 1143.15C396.459 1142.99 396.539 1142.75 396.539 1142.43V1141.76C396.539 1141.44 396.459 1141.2 396.299 1141.04C396.155 1140.88 395.931 1140.8 395.627 1140.8H393.587ZM393.587 1147.09V1149.92H396.707C397.011 1149.92 397.235 1149.84 397.379 1149.68C397.539 1149.52 397.619 1149.28 397.619 1148.96V1148.02C397.619 1147.7 397.539 1147.47 397.379 1147.33C397.235 1147.17 397.011 1147.09 396.707 1147.09H393.587ZM410.162 1154H406.442C406.138 1154 405.914 1153.94 405.77 1153.81C405.642 1153.66 405.578 1153.44 405.578 1153.14V1137.58C405.578 1137.28 405.642 1137.06 405.77 1136.94C405.914 1136.79 406.138 1136.72 406.442 1136.72H410.162C410.466 1136.72 410.682 1136.79 410.81 1136.94C410.954 1137.06 411.026 1137.28 411.026 1137.58V1143.1H411.986L414.458 1137.51C414.57 1137.22 414.722 1137.02 414.914 1136.91C415.106 1136.78 415.354 1136.72 415.658 1136.72H419.354C419.626 1136.72 419.81 1136.79 419.906 1136.94C420.002 1137.06 419.994 1137.26 419.882 1137.51L417.434 1143.1C418.33 1143.15 419.042 1143.47 419.57 1144.06C420.114 1144.64 420.386 1145.41 420.386 1146.37V1153.14C420.386 1153.44 420.314 1153.66 420.17 1153.81C420.042 1153.94 419.826 1154 419.522 1154H415.826C415.522 1154 415.298 1153.94 415.154 1153.81C415.026 1153.66 414.962 1153.44 414.962 1153.14V1148.46C414.962 1148.2 414.898 1148 414.77 1147.86C414.642 1147.71 414.45 1147.64 414.194 1147.64H411.026V1153.14C411.026 1153.44 410.954 1153.66 410.81 1153.81C410.682 1153.94 410.466 1154 410.162 1154Z" fill="#D90D0D"/>
<path d="M498.24 1154H494.52C494.216 1154 493.992 1153.94 493.848 1153.81C493.72 1153.66 493.656 1153.44 493.656 1153.14V1137.58C493.656 1137.28 493.72 1137.06 493.848 1136.94C493.992 1136.79 494.216 1136.72 494.52 1136.72H501.864C504.04 1136.72 505.528 1137.15 506.328 1138.02C507.128 1138.88 507.528 1140.01 507.528 1141.4V1144.47C507.528 1145.86 507.128 1146.99 506.328 1147.86C505.528 1148.72 504.04 1149.15 501.864 1149.15H499.104V1153.14C499.104 1153.44 499.032 1153.66 498.888 1153.81C498.76 1153.94 498.544 1154 498.24 1154ZM499.056 1141.21V1144.83H501.216C501.68 1144.83 501.984 1144.71 502.128 1144.47C502.272 1144.23 502.344 1143.96 502.344 1143.66V1142.38C502.344 1142.08 502.272 1141.81 502.128 1141.57C501.984 1141.33 501.68 1141.21 501.216 1141.21H499.056ZM514.599 1154H510.879C510.575 1154 510.351 1153.94 510.207 1153.81C510.079 1153.66 510.015 1153.44 510.015 1153.14V1137.58C510.015 1137.28 510.079 1137.06 510.207 1136.94C510.351 1136.79 510.575 1136.72 510.879 1136.72H514.599C514.903 1136.72 515.119 1136.79 515.247 1136.94C515.391 1137.06 515.463 1137.28 515.463 1137.58V1142.79H519.471V1137.58C519.471 1137.28 519.535 1137.06 519.663 1136.94C519.807 1136.79 520.031 1136.72 520.335 1136.72H524.055C524.359 1136.72 524.575 1136.79 524.703 1136.94C524.847 1137.06 524.919 1137.28 524.919 1137.58V1153.14C524.919 1153.44 524.847 1153.66 524.703 1153.81C524.575 1153.94 524.359 1154 524.055 1154H520.335C520.031 1154 519.807 1153.94 519.663 1153.81C519.535 1153.66 519.471 1153.44 519.471 1153.14V1147.81H515.463V1153.14C515.463 1153.44 515.391 1153.66 515.247 1153.81C515.119 1153.94 514.903 1154 514.599 1154ZM542.866 1149.46C542.866 1150.2 542.754 1150.87 542.53 1151.48C542.322 1152.07 541.938 1152.58 541.378 1153.02C540.834 1153.43 540.074 1153.76 539.098 1154C538.138 1154.24 536.914 1154.36 535.426 1154.36C533.938 1154.36 532.706 1154.24 531.73 1154C530.754 1153.76 529.986 1153.43 529.426 1153.02C528.882 1152.58 528.498 1152.07 528.274 1151.48C528.066 1150.87 527.962 1150.2 527.962 1149.46V1141.28C527.962 1140.54 528.066 1139.88 528.274 1139.29C528.498 1138.68 528.882 1138.16 529.426 1137.73C529.986 1137.3 530.754 1136.96 531.73 1136.72C532.706 1136.48 533.938 1136.36 535.426 1136.36C536.914 1136.36 538.138 1136.48 539.098 1136.72C540.074 1136.96 540.834 1137.3 541.378 1137.73C541.938 1138.16 542.322 1138.68 542.53 1139.29C542.754 1139.88 542.866 1140.54 542.866 1141.28V1149.46ZM533.41 1148.6C533.41 1148.92 533.53 1149.19 533.77 1149.42C534.01 1149.62 534.562 1149.73 535.426 1149.73C536.29 1149.73 536.842 1149.62 537.082 1149.42C537.322 1149.19 537.442 1148.92 537.442 1148.6V1142.14C537.442 1141.84 537.322 1141.58 537.082 1141.38C536.842 1141.15 536.29 1141.04 535.426 1141.04C534.562 1141.04 534.01 1141.15 533.77 1141.38C533.53 1141.58 533.41 1141.84 533.41 1142.14V1148.6ZM553.964 1154H550.076C549.772 1154 549.548 1153.94 549.404 1153.81C549.276 1153.66 549.212 1153.44 549.212 1153.14V1141.35H545.684C545.38 1141.35 545.156 1141.29 545.012 1141.16C544.884 1141.02 544.82 1140.79 544.82 1140.49V1137.58C544.82 1137.28 544.884 1137.06 545.012 1136.94C545.156 1136.79 545.38 1136.72 545.684 1136.72H558.356C558.66 1136.72 558.876 1136.79 559.004 1136.94C559.148 1137.06 559.22 1137.28 559.22 1137.58V1140.49C559.22 1140.79 559.148 1141.02 559.004 1141.16C558.876 1141.29 558.66 1141.35 558.356 1141.35H554.828V1153.14C554.828 1153.44 554.756 1153.66 554.612 1153.81C554.484 1153.94 554.268 1154 553.964 1154ZM576.077 1149.46C576.077 1150.2 575.965 1150.87 575.741 1151.48C575.533 1152.07 575.149 1152.58 574.589 1153.02C574.045 1153.43 573.285 1153.76 572.309 1154C571.349 1154.24 570.125 1154.36 568.637 1154.36C567.149 1154.36 565.917 1154.24 564.941 1154C563.965 1153.76 563.197 1153.43 562.637 1153.02C562.093 1152.58 561.709 1152.07 561.485 1151.48C561.277 1150.87 561.173 1150.2 561.173 1149.46V1141.28C561.173 1140.54 561.277 1139.88 561.485 1139.29C561.709 1138.68 562.093 1138.16 562.637 1137.73C563.197 1137.3 563.965 1136.96 564.941 1136.72C565.917 1136.48 567.149 1136.36 568.637 1136.36C570.125 1136.36 571.349 1136.48 572.309 1136.72C573.285 1136.96 574.045 1137.3 574.589 1137.73C575.149 1138.16 575.533 1138.68 575.741 1139.29C575.965 1139.88 576.077 1140.54 576.077 1141.28V1149.46ZM566.621 1148.6C566.621 1148.92 566.741 1149.19 566.981 1149.42C567.221 1149.62 567.773 1149.73 568.637 1149.73C569.501 1149.73 570.053 1149.62 570.293 1149.42C570.533 1149.19 570.653 1148.92 570.653 1148.6V1142.14C570.653 1141.84 570.533 1141.58 570.293 1141.38C570.053 1141.15 569.501 1141.04 568.637 1141.04C567.773 1141.04 567.221 1141.15 566.981 1141.38C566.741 1141.58 566.621 1141.84 566.621 1142.14V1148.6ZM587.149 1154H579.565C579.261 1154 579.037 1153.94 578.893 1153.81C578.765 1153.66 578.701 1153.44 578.701 1153.14V1150.33C578.701 1150.02 578.765 1149.81 578.893 1149.68C579.037 1149.54 579.261 1149.46 579.565 1149.46H586.021C586.229 1149.46 586.381 1149.4 586.477 1149.27C586.589 1149.13 586.645 1148.96 586.645 1148.77C586.645 1148.5 586.589 1148.3 586.477 1148.17C586.381 1148.04 586.229 1147.97 586.021 1147.95L582.421 1147.45C581.301 1147.29 580.397 1146.92 579.709 1146.34C579.037 1145.77 578.701 1144.81 578.701 1143.46V1140.94C578.701 1139.58 579.141 1138.54 580.021 1137.82C580.901 1137.09 582.117 1136.72 583.669 1136.72H590.389C590.693 1136.72 590.909 1136.79 591.037 1136.94C591.181 1137.06 591.253 1137.28 591.253 1137.58V1140.44C591.253 1140.74 591.181 1140.97 591.037 1141.11C590.909 1141.24 590.693 1141.3 590.389 1141.3H584.797C584.589 1141.3 584.429 1141.38 584.317 1141.52C584.205 1141.65 584.149 1141.82 584.149 1142.02C584.149 1142.23 584.205 1142.41 584.317 1142.55C584.429 1142.7 584.589 1142.78 584.797 1142.79L588.373 1143.27C589.493 1143.43 590.397 1143.8 591.085 1144.38C591.773 1144.95 592.117 1145.91 592.117 1147.26V1149.78C592.117 1151.14 591.669 1152.18 590.773 1152.92C589.893 1153.64 588.685 1154 587.149 1154Z" fill="#D90D0D"/>
</svg>
